<svg xmlns="http://www.w3.org/2000/svg" version="1.0" preserveAspectRatio="xMidYMid meet" viewBox="18 860.2 2019 325.78">

<g transform="translate(0.000000,2048.000000) scale(0.100000,-0.100000)" fill="#000000" stroke="none">
<path d="M11960 11873 c-601 -42 -950 -259 -1056 -658 -26 -98 -26 -369 0 -470 65 -252 237 -426 543 -549 112 -44 334 -103 683 -180 305 -68 420 -105 526 -172 70 -44 119 -94 152 -157 24 -47 27 -62 27 -152 0 -93 -2 -105 -33 -167 -53 -108 -144 -174 -303 -218 -104 -28 -282 -44 -426 -37 -290 15 -477 93 -595 249 -42 56 -108 188 -108 217 0 6 -6 11 -14 11 -21 0 -619 -100 -624 -104 -9 -10 52 -181 93 -264 131 -261 350 -434 666 -526 197 -57 319 -70 634 -70 311 -1 421 10 610 59 385 100 626 311 715 625 28 96 38 326 21 436 -44 270 -187 458 -448 588 -154 77 -353 136 -743 221 -405 88 -555 142 -654 235 -73 69 -100 131 -100 235 -1 108 23 175 83 235 83 83 196 123 399 141 209 19 420 -15 533 -87 87 -55 170 -164 200 -263 7 -24 18 -45 24 -48 14 -5 624 73 632 81 10 10 -48 193 -91 281 -149 311 -432 463 -941 505 -112 9 -301 11 -405 3z"/>
<path d="M15221 11868 c-399 -30 -728 -169 -959 -406 -217 -221 -344 -519 -393 -917 -14 -119 -14 -433 1 -565 31 -283 124 -553 258 -753 66 -97 207 -245 298 -312 285 -211 639 -306 1087 -292 100 3 211 11 247 17 422 72 739 268 951 590 65 99 154 279 143 290 -9 9 -551 220 -563 220 -3 -1 -22 -35 -41 -78 -150 -329 -398 -502 -745 -519 -407 -19 -700 141 -860 472 -78 159 -113 329 -122 575 -11 316 39 573 148 767 52 93 186 232 271 282 71 41 200 86 293 102 102 17 325 15 411 -4 271 -61 489 -229 569 -440 10 -26 22 -50 26 -53 8 -4 552 141 571 152 10 7 -27 107 -77 206 -172 341 -478 559 -892 638 -203 38 -387 46 -622 28z"/>
<path d="M18571 11869 c-62 -5 -159 -18 -215 -29 -709 -143 -1129 -655 -1175 -1431 -28 -465 64 -865 266 -1166 196 -292 497 -492 868 -578 183 -42 475 -57 683 -34 470 51 859 272 1092 621 194 289 280 602 280 1015 0 497 -139 885 -418 1171 -252 258 -582 400 -1007 431 -157 12 -210 12 -374 0z m308 -519 c109 -12 246 -47 314 -82 265 -134 432 -397 488 -763 17 -114 15 -408 -5 -530 -52 -328 -188 -563 -409 -706 -119 -77 -264 -118 -452 -126 -623 -27 -999 433 -972 1187 13 362 116 629 311 806 155 142 321 204 597 222 15 1 72 -3 128 -8z"/>
<path d="M180 10245 l0 -1585 1175 0 1175 0 0 255 0 255 -845 0 -845 0 -2 1328 -3 1327 -327 3 -328 2 0 -1585z"/>
<path d="M2990 10245 l0 -1585 328 2 327 3 0 1580 0 1580 -327 3 -328 2 0 -1585z"/>
<path d="M4270 10245 l0 -1585 290 0 290 0 0 1003 c0 801 -3 1037 -15 1177 -8 96 -17 191 -21 210 -4 27 -3 32 6 23 7 -6 318 -551 690 -1210 l678 -1198 389 0 388 0 0 1580 0 1580 -292 3 -293 2 0 -977 c0 -924 5 -1136 31 -1361 6 -52 9 -96 6 -98 -2 -3 -317 543 -700 1213 l-695 1218 -376 3 -376 2 0 -1585z"/>
<path d="M7590 10245 l0 -1585 328 2 327 3 3 577 2 577 186 142 c102 78 192 142 199 143 6 0 258 -314 560 -699 301 -385 556 -710 568 -722 l20 -23 385 0 c239 0 382 4 380 10 -1 5 -327 413 -723 906 -396 493 -722 901 -724 906 -1 5 300 310 670 678 l674 669 -387 0 -386 1 -711 -717 -711 -716 -2 714 -3 714 -327 3 -328 2 0 -1585z"/>
</g>
</svg>